<?xml version="1.0" standalone="no"?><!DOCTYPE svg PUBLIC "-//W3C//DTD SVG 1.1//EN" "http://www.w3.org/Graphics/SVG/1.1/DTD/svg11.dtd"><svg t="1492669468754" class="icon" style="" viewBox="0 0 1024 1024" version="1.1" xmlns="http://www.w3.org/2000/svg" p-id="9831" xmlns:xlink="http://www.w3.org/1999/xlink" width="200" height="200"><defs><style type="text/css"></style></defs><path d="M761.39 328.49c0-144.99-117.99-262.89-262.98-262.89s-262.89 117.9-262.89 262.89c0 107.1 64.44 199.44 156.51 240.39-150.21 54-257.94 197.82-257.94 366.39 0 12.69 10.35 23.040 23.040 23.040 12.69 0 23.040-10.35 23.040-23.040 0-189.18 153.9-343.080 343.080-343.080 4.41 0 8.55-1.26 12.060-3.42 127.62-17.91 226.080-127.8 226.080-260.28zM281.6 328.49c0-119.52 97.29-216.81 216.81-216.81s216.81 97.29 216.81 216.81-97.2 216.81-216.81 216.81-216.81-97.2-216.81-216.81z" p-id="9832" fill="#ffffff"></path><path d="M556.73 670.76c0 12.69 10.35 23.040 23.040 23.040h287.1c12.69 0 23.040-10.35 23.040-23.040s-10.35-23.040-23.040-23.040h-287.1c-12.78 0-23.040 10.35-23.040 23.040z" p-id="9833" fill="#ffffff"></path><path d="M866.87 774.44h-287.1c-12.69 0-23.040 10.35-23.040 23.040s10.35 23.040 23.040 23.040h287.1c12.69 0 23.040-10.35 23.040-23.040s-10.26-23.040-23.040-23.040z" p-id="9834" fill="#ffffff"></path><path d="M866.87 902.78h-287.1c-12.69 0-23.040 10.35-23.040 23.040s10.35 23.040 23.040 23.040h287.1c12.69 0 23.040-10.35 23.040-23.040s-10.26-23.040-23.040-23.040z" p-id="9835" fill="#ffffff"></path></svg>