<?xml version="1.0" standalone="no"?><!DOCTYPE svg PUBLIC "-//W3C//DTD SVG 1.1//EN" "http://www.w3.org/Graphics/SVG/1.1/DTD/svg11.dtd"><svg class="icon" width="200px" height="200.00px" viewBox="0 0 1024 1024" version="1.1" xmlns="http://www.w3.org/2000/svg"><path fill="#adadad" d="M929.86503 1024H92.983307A92.951343 92.951343 0 0 1 0 931.080621V94.806214A92.983307 92.983307 0 0 1 92.983307 1.886836h557.931803a30.973126 30.973126 0 1 1 0 61.946252H123.988397a62.01018 62.01018 0 0 0-62.010181 61.946252v774.328155a62.01018 62.01018 0 0 0 62.010181 61.946253H898.827976a62.01018 62.01018 0 0 0 62.01018-61.946253V342.591224a30.973126 30.973126 0 1 1 61.978217 0v588.489397A92.983307 92.983307 0 0 1 929.86503 1024M423.810816 613.709961a31.00509 31.00509 0 0 1-43.822659-43.790694L936.96104 10.197478a30.973126 30.973126 0 1 1 43.822659 43.790695L423.84278 613.709961"  /></svg>