<?xml version="1.0" standalone="no"?><!DOCTYPE svg PUBLIC "-//W3C//DTD SVG 1.1//EN" "http://www.w3.org/Graphics/SVG/1.1/DTD/svg11.dtd"><svg class="icon" width="200px" height="200.00px" viewBox="0 0 1024 1024" version="1.1" xmlns="http://www.w3.org/2000/svg"><path fill="#adadad" d="M987.84 90.848h-277.888L633.536 13.12a34.624 34.624 0 0 0-26.464-12.32h-190.4v0.096c-8.96 0-17.952 3.52-24.768 10.56l-77.152 79.36H35.936c-19.264 0-34.88 15.84-34.88 35.392 0 19.52 15.616 35.36 34.88 35.36h293.248c10.656 0 20.192-4.8 26.624-12.48l75.36-77.536h161.536l78.24 79.52c6.816 6.944 15.744 10.4 24.64 10.4v0.096h292.256c19.296 0 34.88-15.84 34.88-35.36 0-19.552-15.584-35.392-34.88-35.392M360.672 830.56V303.392c0-19.52-15.584-35.392-34.88-35.392-19.232 0-34.88 15.84-34.88 35.392v527.168c0 19.552 15.648 35.392 34.88 35.392 19.296 0 34.88-15.84 34.88-35.392"  /><path fill="#adadad" d="M903.04 242.56c-19.296 0-34.88 15.84-34.88 35.392h-0.032v625.472c0 13.312-5.408 25.44-14.08 34.24-0.48 0.48-0.96 0.96-1.376 1.472-8.48 7.968-19.904 12.832-32.416 12.832H203.52c-13.152 0-25.12-5.472-33.824-14.272a48.864 48.864 0 0 1-14.08-34.272V277.952c0-19.52-15.616-35.392-34.88-35.392-19.296 0-34.88 15.84-34.88 35.392v625.472c0 32.832 13.216 62.72 34.528 84.288a116.544 116.544 0 0 0 83.136 35.04h616.704c31.168 0 59.648-12.544 80.864-32.896l2.24-2.144a119.872 119.872 0 0 0 34.56-84.288V277.952c0-19.52-15.616-35.392-34.88-35.392"  /><path fill="#adadad" d="M546.752 830.56V303.392c0-19.52-15.584-35.392-34.88-35.392-19.232 0-34.88 15.84-34.88 35.392v527.168c0 19.552 15.648 35.392 34.88 35.392 19.296 0 34.88-15.84 34.88-35.392M732.864 830.56V303.392c0-19.52-15.648-35.392-34.88-35.392-19.264 0-34.88 15.84-34.88 35.392v527.168c0 19.552 15.616 35.392 34.88 35.392 19.232 0 34.88-15.84 34.88-35.392"  /></svg>