<?xml version="1.0" standalone="no"?><!DOCTYPE svg PUBLIC "-//W3C//DTD SVG 1.1//EN" "http://www.w3.org/Graphics/SVG/1.1/DTD/svg11.dtd"><svg class="icon" width="200px" height="200.00px" viewBox="0 0 1024 1024" version="1.1" xmlns="http://www.w3.org/2000/svg"><path fill="#ffab00" d="M511.911484 64.35982c-245.860571 0-445.877023 200.013383-445.877023 445.880093 0 245.858524 200.01543 445.898513 445.877023 445.898513 245.902526 0 445.912839-200.038966 445.912839-445.898513C957.824323 264.374226 757.81401 64.35982 511.911484 64.35982L511.911484 64.35982zM788.881586 386.070916 456.059432 718.883861c-7.989975 7.994068-20.947078 7.994068-28.935006 0l-43.658336-43.661406c-0.005117 0-0.005117-0.002047-0.00921-0.007163L239.013117 530.772552c-8.009418-7.995091-8.009418-20.947078 0-28.941146l43.644009-43.658336c7.989975-7.994068 20.946055-7.994068 28.936029 0L441.590905 588.165704l274.687106-274.694269c8.014534-7.983835 20.951171-7.983835 28.959565 0l43.644009 43.658336C796.866445 365.110535 796.866445 378.075825 788.881586 386.070916L788.881586 386.070916zM788.881586 386.070916" /></svg>